<?xml version="1.0" encoding="iso-8859-1"?>
<!-- Generator: Adobe Illustrator 19.0.0, SVG Export Plug-In . SVG Version: 6.00 Build 0)  -->
<svg version="1.1" id="Layer_1" xmlns="http://www.w3.org/2000/svg" xmlns:xlink="http://www.w3.org/1999/xlink" x="0px" y="0px"
	 viewBox="0 0 512 512" style="enable-background:new 0 0 512 512;" xml:space="preserve">
<path style="fill:#FFFFFF;" d="M256,506C117.928,506,6,394.072,6,256S117.928,6,256,6s250,111.928,250,250
	C505.848,394.008,394.008,505.848,256,506z"/>
<path style="fill:#E04F5F;" d="M256,12c134.76,0,244,109.24,244,244S390.76,500,256,500S12,390.76,12,256
	C12.152,121.304,121.304,12.152,256,12 M256,0C114.616,0,0,114.616,0,256s114.616,256,256,256s256-114.616,256-256S397.384,0,256,0z
	"/>
<rect x="360.64" y="184.64" style="fill:#25B6D2;" width="36.776" height="12"/>
<rect x="268.728" y="184.64" style="fill:#AAC1CE;" width="36.776" height="12"/>
<g>
	<rect x="124.08" y="184.64" style="fill:#E04F5F;" width="69.144" height="12"/>
	<rect x="386.72" y="308.472" style="fill:#E04F5F;" width="36.776" height="12"/>
</g>
<rect x="294.8" y="308.472" style="fill:#25B6D2;" width="36.776" height="12"/>
<rect x="129.28" y="308.472" style="fill:#E04F5F;" width="110.312" height="12"/>
<rect x="331.6" y="225.92" style="fill:#AAC1CE;" width="91.928" height="12"/>
<rect x="258" y="225.92" style="fill:#E04F5F;" width="36.792" height="12"/>
<rect x="139.488" y="225.92" style="fill:#AAC1CE;" width="81.76" height="12"/>
<rect x="349.96" y="267.2" style="fill:#25B6D2;" width="73.544" height="12"/>
<g>
	<rect x="276.4" y="267.2" style="fill:#AAC1CE;" width="36.776" height="12"/>
	<rect x="114.664" y="267.2" style="fill:#AAC1CE;" width="88.16" height="12"/>
</g>
<g>
	<path style="fill:#415E72;" d="M106.2,119.2l24-12.336v3.56l-20.224,10.136v0.112l20.184,10.12v3.56l-24-12.344L106.2,119.2z"/>
	<path style="fill:#415E72;" d="M137.312,97.688h4.544v15.592h0.104c0.768-1.344,1.896-2.456,3.256-3.2
		c1.408-0.832,3.008-1.28,4.648-1.296c3.352,0,8.728,2.072,8.728,10.696v14.864h-4.544V120c0-4-1.496-7.44-5.784-7.44
		c-2.792,0.048-5.24,1.872-6.096,4.536c-0.248,0.696-0.352,1.432-0.312,2.168v15.08h-4.544V97.688z"/>
	<path style="fill:#415E72;" d="M171.2,102.176v7.2h6.504v3.424H171.2v13.48c0,3.096,0.872,4.848,3.408,4.848
		c0.888,0.008,1.768-0.088,2.632-0.304l0.208,3.408c-1.288,0.448-2.64,0.656-4,0.616c-1.832,0.112-3.624-0.584-4.904-1.904
		c-1.376-1.872-2-4.192-1.752-6.504V112.8h-3.872v-3.44h3.872v-5.992L171.2,102.176z"/>
	<path style="fill:#415E72;" d="M182.816,116.128c0-2.584-0.048-4.704-0.2-6.768h4l0.2,4h0.16c1.528-2.904,4.568-4.68,7.848-4.6
		c3.192-0.032,6.048,1.984,7.072,5.008h0.112c0.688-1.264,1.64-2.376,2.784-3.248c1.584-1.208,3.536-1.832,5.528-1.76
		c3.304,0,8.208,2.168,8.208,10.84v14.72h-4.448V120.2c0-4.8-1.76-7.696-5.424-7.696c-2.48,0.104-4.632,1.76-5.368,4.136
		c-0.24,0.736-0.36,1.504-0.36,2.272v15.44h-4.448v-14.976c0-4-1.76-6.864-5.208-6.864c-3.432,0.4-6.016,3.312-5.992,6.768v15.08
		h-4.448L182.816,116.128z"/>
	<path style="fill:#415E72;" d="M225.848,97.688h4.552v36.664h-4.544L225.848,97.688z"/>
	<path style="fill:#415E72;" d="M261.6,122.064l-24,12.288v-3.56l20.344-10.12v-0.112L237.6,110.44v-3.56l24,12.288V122.064z"/>
	<path style="fill:#415E72;" d="M106.2,392.8l24-12.336V384l-20.184,10.12v0.112l20.184,10.12v3.56l-24-12.344V392.8z"/>
	<path style="fill:#415E72;" d="M133.488,409.992l14.4-37.432h3.512l-14.464,37.432H133.488z"/>
	<path style="fill:#415E72;" d="M155.008,371.264h4.544v15.592h0.104c0.768-1.344,1.896-2.456,3.256-3.2
		c1.408-0.832,3.008-1.28,4.648-1.296c3.352,0,8.728,2.072,8.728,10.696v14.864h-4.544V393.6c0-4-1.496-7.44-5.784-7.44
		c-2.792,0.048-5.24,1.872-6.096,4.536c-0.248,0.696-0.352,1.432-0.312,2.168v15.08h-4.544V371.264z"/>
	<path style="fill:#415E72;" d="M188.912,375.76v7.2h6.504v3.44h-6.504v13.48c0,3.096,0.872,4.848,3.408,4.848
		c0.888,0.008,1.768-0.088,2.632-0.304l0.208,3.408c-1.288,0.448-2.64,0.656-4,0.616c-1.832,0.112-3.624-0.584-4.904-1.904
		c-1.4-1.88-2.032-4.216-1.784-6.544v-13.6H180.6v-3.464h3.872v-5.992L188.912,375.76z"/>
	<path style="fill:#415E72;" d="M200.512,389.704c0-2.584-0.048-4.704-0.2-6.768h4l0.2,4h0.16c1.528-2.904,4.568-4.68,7.848-4.6
		c3.192-0.032,6.048,1.984,7.072,5.008h0.112c0.688-1.264,1.64-2.376,2.784-3.248c1.584-1.208,3.536-1.832,5.528-1.76
		c3.304,0,8.208,2.168,8.208,10.84v14.72h-4.448v-14.112c0-4.8-1.76-7.696-5.424-7.696c-2.48,0.104-4.632,1.76-5.368,4.136
		c-0.24,0.736-0.36,1.504-0.36,2.272v15.44h-4.464v-14.984c0-4-1.76-6.864-5.208-6.864c-3.432,0.4-6.016,3.312-5.992,6.768v15.08
		h-4.448V389.704z"/>
	<path style="fill:#415E72;" d="M243.544,371.264h4.544v36.664h-4.544V371.264z"/>
	<path style="fill:#415E72;" d="M279.32,395.64l-24,12.288v-3.56l20.344-10.12v-0.112L255.36,384v-3.56l24,12.288L279.32,395.64z"/>
</g>
<g>
</g>
<g>
</g>
<g>
</g>
<g>
</g>
<g>
</g>
<g>
</g>
<g>
</g>
<g>
</g>
<g>
</g>
<g>
</g>
<g>
</g>
<g>
</g>
<g>
</g>
<g>
</g>
<g>
</g>
</svg>
